<svg width="24" height="24" viewBox="0 0 24 24" fill="none" xmlns="http://www.w3.org/2000/svg">
<path d="M10.0697 15.5517V17.0078C10.0697 17.7048 9.60013 18.3142 8.92627 18.4919L8.60105 18.5777C7.79198 18.7911 7 18.1809 7 17.3442C7 16.765 7.39025 16.2584 7.95034 16.1107L10.0697 15.5517ZM10.0697 15.5517V9.71998L16.5 8V13.8234M16.5 13.8234V15.2876C16.5 15.9847 16.0304 16.5942 15.3564 16.772L15.0294 16.8582C14.2211 17.0714 13.4298 16.4617 13.4298 15.6258C13.4298 15.0493 13.8168 14.5446 14.3735 14.3949L16.5 13.8234ZM5 2H19M3 6C3 5.44772 3.44772 5 4 5H20C20.5523 5 21 5.44772 21 6V21C21 21.5523 20.5523 22 20 22H4C3.44772 22 3 21.5523 3 21V6Z" stroke="black" stroke-width="1.5" stroke-linecap="round" stroke-linejoin="round"/>
</svg>
